<svg width="169" height="209" viewBox="0 0 169 209" fill="none" xmlns="http://www.w3.org/2000/svg">
<path fill-rule="evenodd" clip-rule="evenodd" d="M76.4048 8.09519L25.35 59.15L0 84.5L25.35 109.85L74.0033 158.503L74.5233 138.743L35.49 99.71L50.7 84.5L35.49 69.29L75.8567 28.9233L76.4048 8.09519ZM143.65 109.85L90.6241 162.876L91.1722 142.048L133.51 99.71L118.3 84.5L133.51 69.29L92.6068 28.3868L93.1267 8.62675L143.65 59.15L169 84.5L143.65 109.85Z" fill="white"/>
<path d="M94.7063 93.7123C100.307 88.1122 100.307 79.0325 94.7063 73.4323C89.1062 67.8322 80.0265 67.8322 74.4263 73.4323C68.8262 79.0325 68.8262 88.1122 74.4263 93.7123C80.0265 99.3125 89.1062 99.3125 94.7063 93.7123Z" fill="#EB7F1B"/>
<path d="M31.4305 186.574H40.2038L31.084 195.539H41.7003C43.8416 195.539 45.5775 197.304 45.5775 199.482C45.5775 201.66 43.8416 203.426 41.7003 203.426H31.4305V207.833H41.7003C46.2348 207.833 49.9109 204.094 49.9109 199.482C49.9109 194.905 46.2899 191.188 41.8024 191.132L50.9229 182.167H31.4305V186.574Z" fill="#EB7F1B"/>
<path fill-rule="evenodd" clip-rule="evenodd" d="M125.426 207.737L128.016 202H136.519L139.131 207.737H144.867L132.296 181L119.725 207.737H125.426ZM129.195 197.923H135.372L132.296 190.67L129.195 197.923ZM71.3372 198.139V182.479H76.224V209L58.5891 192.077V207.737H53.7023V181.216L71.3372 198.139ZM13.0865 190.742C12.3547 191.969 11.9888 193.424 11.9888 195.108C11.9888 196.768 12.3547 198.223 13.0865 199.474C13.842 200.701 14.8217 201.651 16.0257 202.325C17.2297 202.974 18.5399 203.299 19.9563 203.299C21.1367 203.299 22.1873 203.143 23.108 202.83C24.0287 202.517 24.8549 202.096 25.5868 201.567C26.3422 201.038 26.9914 200.46 27.5344 199.835V205.644C26.5193 206.462 25.4097 207.1 24.2057 207.557C23.0253 208.014 21.5262 208.242 19.7085 208.242C17.8198 208.242 16.0611 207.93 14.4322 207.304C12.8268 206.679 11.4222 205.777 10.2182 204.598C9.03782 203.419 8.11712 202.036 7.45611 200.448C6.8187 198.837 6.5 197.057 6.5 195.108C6.5 193.16 6.8187 191.392 7.45611 189.804C8.11712 188.192 9.03782 186.797 10.2182 185.619C11.4222 184.44 12.8268 183.538 14.4322 182.912C16.0611 182.287 17.8198 181.974 19.7085 181.974C21.5262 181.974 23.0253 182.203 24.2057 182.66C25.4097 183.117 26.5193 183.754 27.5344 184.572V190.381C26.9914 189.756 26.3422 189.179 25.5868 188.649C24.8549 188.12 24.0287 187.699 23.108 187.387C22.1873 187.074 21.1367 186.918 19.9563 186.918C18.5399 186.918 17.2297 187.254 16.0257 187.928C14.8217 188.577 13.842 189.515 13.0865 190.742ZM79.1307 187.134H85.7881V207.737H90.8519V187.134H97.5447V182.479H79.1307V187.134ZM107.695 198.572L113.489 207.737H119.473L112.766 197.966C113.105 197.848 113.428 197.714 113.737 197.562C115.106 196.888 116.156 195.95 116.888 194.747C117.62 193.521 117.986 192.113 117.986 190.526C117.986 188.914 117.62 187.507 116.888 186.304C116.156 185.101 115.106 184.163 113.737 183.49C112.367 182.816 110.703 182.479 108.744 182.479H105.486H103.503H100.422V207.737H105.486V198.572H107.695ZM105.486 186.881V194.459H108.425C109.322 194.459 110.089 194.314 110.727 194.026C111.388 193.713 111.895 193.28 112.249 192.727C112.603 192.149 112.78 191.464 112.78 190.67C112.78 189.876 112.603 189.203 112.249 188.649C111.895 188.072 111.388 187.639 110.727 187.351C110.089 187.038 109.322 186.881 108.425 186.881H105.486ZM147.556 207.737V182.479H152.62V203.227H162.5V207.737H147.556Z" fill="white"/>
</svg>
