<svg width="228" height="228" viewBox="0 0 228 228" fill="none" xmlns="http://www.w3.org/2000/svg">
<path fill-rule="evenodd" clip-rule="evenodd" d="M38.1164 38.1158C32.7895 43.4427 29.5846 50.0872 28.5005 57C27.4164 50.0871 24.2105 43.4425 18.8846 38.1158C13.5577 32.7892 6.91264 29.5837 0 28.4998C6.91264 27.4159 13.5577 24.211 18.8846 18.8842C24.2114 13.5573 27.4164 6.91279 28.4995 0C29.5836 6.91292 32.7895 13.5575 38.1164 18.8842C43.4423 24.2108 50.0874 27.4163 57 28.5002C50.0874 29.5841 43.4433 32.789 38.1164 38.1158Z" fill="#ECEEF7"/>
<path fill-rule="evenodd" clip-rule="evenodd" d="M95.1164 38.1158C89.7895 43.4427 86.5846 50.0872 85.5005 57C84.4164 50.0871 81.2105 43.4425 75.8846 38.1158C70.5577 32.7892 63.9126 29.5837 57 28.4998C63.9126 27.4159 70.5577 24.211 75.8846 18.8842C81.2114 13.5573 84.4164 6.91279 85.4995 0C86.5836 6.91292 89.7895 13.5575 95.1164 18.8842C100.442 24.2108 107.087 27.4163 114 28.5002C107.087 29.5841 100.443 32.789 95.1164 38.1158Z" fill="#ECEEF7"/>
<path fill-rule="evenodd" clip-rule="evenodd" d="M152.116 38.1158C146.79 43.4427 143.585 50.0872 142.5 57C141.416 50.0871 138.21 43.4425 132.885 38.1158C127.558 32.7892 120.913 29.5837 114 28.4998C120.913 27.4159 127.558 24.211 132.885 18.8842C138.211 13.5573 141.416 6.91279 142.5 0C143.584 6.91292 146.79 13.5575 152.116 18.8842C157.442 24.2108 164.087 27.4163 171 28.5002C164.087 29.5841 157.443 32.789 152.116 38.1158Z" fill="#ECEEF7"/>
<path fill-rule="evenodd" clip-rule="evenodd" d="M209.116 38.1158C203.79 43.4427 200.585 50.0872 199.5 57C198.416 50.0871 195.21 43.4425 189.885 38.1158C184.558 32.7892 177.913 29.5837 171 28.4998C177.913 27.4159 184.558 24.211 189.885 18.8842C195.211 13.5573 198.416 6.91279 199.5 0C200.584 6.91292 203.79 13.5575 209.116 18.8842C214.442 24.2108 221.087 27.4163 228 28.5002C221.087 29.5841 214.443 32.789 209.116 38.1158Z" fill="#ECEEF7"/>
<path fill-rule="evenodd" clip-rule="evenodd" d="M38.1164 95.1158C32.7895 100.443 29.5846 107.087 28.5005 114C27.4164 107.087 24.2105 100.442 18.8846 95.1158C13.5577 89.7892 6.91264 86.5837 0 85.4998C6.91264 84.4159 13.5577 81.211 18.8846 75.8842C24.2114 70.5573 27.4164 63.9128 28.4995 57C29.5836 63.9129 32.7895 70.5575 38.1164 75.8842C43.4423 81.2108 50.0874 84.4163 57 85.5002C50.0874 86.5841 43.4433 89.789 38.1164 95.1158Z" fill="#ECEEF7"/>
<path fill-rule="evenodd" clip-rule="evenodd" d="M95.1164 95.1158C89.7895 100.443 86.5846 107.087 85.5005 114C84.4164 107.087 81.2105 100.442 75.8846 95.1158C70.5577 89.7892 63.9126 86.5837 57 85.4998C63.9126 84.4159 70.5577 81.211 75.8846 75.8842C81.2114 70.5573 84.4164 63.9128 85.4995 57C86.5836 63.9129 89.7895 70.5575 95.1164 75.8842C100.442 81.2108 107.087 84.4163 114 85.5002C107.087 86.5841 100.443 89.789 95.1164 95.1158Z" fill="#0E0E0E"/>
<path fill-rule="evenodd" clip-rule="evenodd" d="M152.116 95.1158C146.79 100.443 143.585 107.087 142.5 114C141.416 107.087 138.21 100.442 132.885 95.1158C127.558 89.7892 120.913 86.5837 114 85.4998C120.913 84.4159 127.558 81.211 132.885 75.8842C138.211 70.5573 141.416 63.9128 142.5 57C143.584 63.9129 146.79 70.5575 152.116 75.8842C157.442 81.2108 164.087 84.4163 171 85.5002C164.087 86.5841 157.443 89.789 152.116 95.1158Z" fill="#0E0E0E"/>
<path fill-rule="evenodd" clip-rule="evenodd" d="M209.116 95.1158C203.79 100.443 200.585 107.087 199.5 114C198.416 107.087 195.21 100.442 189.885 95.1158C184.558 89.7892 177.913 86.5837 171 85.4998C177.913 84.4159 184.558 81.211 189.885 75.8842C195.211 70.5573 198.416 63.9128 199.5 57C200.584 63.9129 203.79 70.5575 209.116 75.8842C214.442 81.2108 221.087 84.4163 228 85.5002C221.087 86.5841 214.443 89.789 209.116 95.1158Z" fill="#ECEEF7"/>
<path fill-rule="evenodd" clip-rule="evenodd" d="M38.1164 152.116C32.7895 157.443 29.5846 164.087 28.5005 171C27.4164 164.087 24.2105 157.442 18.8846 152.116C13.5577 146.789 6.91264 143.584 0 142.5C6.91264 141.416 13.5577 138.211 18.8846 132.884C24.2114 127.557 27.4164 120.913 28.4995 114C29.5836 120.913 32.7895 127.558 38.1164 132.884C43.4423 138.211 50.0874 141.416 57 142.5C50.0874 143.584 43.4433 146.789 38.1164 152.116Z" fill="#ECEEF7"/>
<path fill-rule="evenodd" clip-rule="evenodd" d="M95.1164 152.116C89.7895 157.443 86.5846 164.087 85.5005 171C84.4164 164.087 81.2105 157.442 75.8846 152.116C70.5577 146.789 63.9126 143.584 57 142.5C63.9126 141.416 70.5577 138.211 75.8846 132.884C81.2114 127.557 84.4164 120.913 85.4995 114C86.5836 120.913 89.7895 127.558 95.1164 132.884C100.442 138.211 107.087 141.416 114 142.5C107.087 143.584 100.443 146.789 95.1164 152.116Z" fill="#0E0E0E"/>
<path fill-rule="evenodd" clip-rule="evenodd" d="M152.116 152.116C146.79 157.443 143.585 164.087 142.5 171C141.416 164.087 138.21 157.442 132.885 152.116C127.558 146.789 120.913 143.584 114 142.5C120.913 141.416 127.558 138.211 132.885 132.884C138.211 127.557 141.416 120.913 142.5 114C143.584 120.913 146.79 127.558 152.116 132.884C157.442 138.211 164.087 141.416 171 142.5C164.087 143.584 157.443 146.789 152.116 152.116Z" fill="#0E0E0E"/>
<path fill-rule="evenodd" clip-rule="evenodd" d="M209.116 152.116C203.79 157.443 200.585 164.087 199.5 171C198.416 164.087 195.21 157.442 189.885 152.116C184.558 146.789 177.913 143.584 171 142.5C177.913 141.416 184.558 138.211 189.885 132.884C195.211 127.557 198.416 120.913 199.5 114C200.584 120.913 203.79 127.558 209.116 132.884C214.442 138.211 221.087 141.416 228 142.5C221.087 143.584 214.443 146.789 209.116 152.116Z" fill="#ECEEF7"/>
<path fill-rule="evenodd" clip-rule="evenodd" d="M38.1164 209.116C32.7895 214.443 29.5846 221.087 28.5005 228C27.4164 221.087 24.2105 214.442 18.8846 209.116C13.5577 203.789 6.91264 200.584 0 199.5C6.91264 198.416 13.5577 195.211 18.8846 189.884C24.2114 184.557 27.4164 177.913 28.4995 171C29.5836 177.913 32.7895 184.558 38.1164 189.884C43.4423 195.211 50.0874 198.416 57 199.5C50.0874 200.584 43.4433 203.789 38.1164 209.116Z" fill="#ECEEF7"/>
<path fill-rule="evenodd" clip-rule="evenodd" d="M95.1164 209.116C89.7895 214.443 86.5846 221.087 85.5005 228C84.4164 221.087 81.2105 214.442 75.8846 209.116C70.5577 203.789 63.9126 200.584 57 199.5C63.9126 198.416 70.5577 195.211 75.8846 189.884C81.2114 184.557 84.4164 177.913 85.4995 171C86.5836 177.913 89.7895 184.558 95.1164 189.884C100.442 195.211 107.087 198.416 114 199.5C107.087 200.584 100.443 203.789 95.1164 209.116Z" fill="#ECEEF7"/>
<path fill-rule="evenodd" clip-rule="evenodd" d="M152.116 209.116C146.79 214.443 143.585 221.087 142.5 228C141.416 221.087 138.21 214.442 132.885 209.116C127.558 203.789 120.913 200.584 114 199.5C120.913 198.416 127.558 195.211 132.885 189.884C138.211 184.557 141.416 177.913 142.5 171C143.584 177.913 146.79 184.558 152.116 189.884C157.442 195.211 164.087 198.416 171 199.5C164.087 200.584 157.443 203.789 152.116 209.116Z" fill="#ECEEF7"/>
<path fill-rule="evenodd" clip-rule="evenodd" d="M209.116 209.116C203.79 214.443 200.585 221.087 199.5 228C198.416 221.087 195.21 214.442 189.885 209.116C184.558 203.789 177.913 200.584 171 199.5C177.913 198.416 184.558 195.211 189.885 189.884C195.211 184.557 198.416 177.913 199.5 171C200.584 177.913 203.79 184.558 209.116 189.884C214.442 195.211 221.087 198.416 228 199.5C221.087 200.584 214.443 203.789 209.116 209.116Z" fill="#ECEEF7"/>
</svg>
