<svg width="456" height="57" viewBox="0 0 456 57" fill="none" xmlns="http://www.w3.org/2000/svg">
<path fill-rule="evenodd" clip-rule="evenodd" d="M38.1164 38.1158C32.7895 43.4427 29.5846 50.0872 28.5005 57C27.4164 50.0871 24.2105 43.4425 18.8846 38.1158C13.5577 32.7892 6.91264 29.5837 0 28.4998C6.91264 27.4159 13.5577 24.211 18.8846 18.8842C24.2114 13.5573 27.4164 6.91279 28.4995 0C29.5836 6.91292 32.7895 13.5575 38.1164 18.8842C43.4423 24.2108 50.0874 27.4163 57 28.5002C50.0874 29.5841 43.4433 32.789 38.1164 38.1158Z" fill="white"/>
<path fill-rule="evenodd" clip-rule="evenodd" d="M95.1164 38.1158C89.7895 43.4427 86.5846 50.0872 85.5005 57C84.4164 50.0871 81.2105 43.4425 75.8846 38.1158C70.5577 32.7892 63.9126 29.5837 57 28.4998C63.9126 27.4159 70.5577 24.211 75.8846 18.8842C81.2114 13.5573 84.4164 6.91279 85.4995 0C86.5836 6.91292 89.7895 13.5575 95.1164 18.8842C100.442 24.2108 107.087 27.4163 114 28.5002C107.087 29.5841 100.443 32.789 95.1164 38.1158Z" fill="white"/>
<path fill-rule="evenodd" clip-rule="evenodd" d="M152.116 38.1158C146.79 43.4427 143.585 50.0872 142.5 57C141.416 50.0871 138.21 43.4425 132.885 38.1158C127.558 32.7892 120.913 29.5837 114 28.4998C120.913 27.4159 127.558 24.211 132.885 18.8842C138.211 13.5573 141.416 6.91279 142.5 0C143.584 6.91292 146.79 13.5575 152.116 18.8842C157.442 24.2108 164.087 27.4163 171 28.5002C164.087 29.5841 157.443 32.789 152.116 38.1158Z" fill="white"/>
<path fill-rule="evenodd" clip-rule="evenodd" d="M209.116 38.1158C203.79 43.4427 200.585 50.0872 199.5 57C198.416 50.0871 195.21 43.4425 189.885 38.1158C184.558 32.7892 177.913 29.5837 171 28.4998C177.913 27.4159 184.558 24.211 189.885 18.8842C195.211 13.5573 198.416 6.91279 199.5 0C200.584 6.91292 203.79 13.5575 209.116 18.8842C214.442 24.2108 221.087 27.4163 228 28.5002C221.087 29.5841 214.443 32.789 209.116 38.1158Z" fill="#0E0E0E"/>
<path fill-rule="evenodd" clip-rule="evenodd" d="M266.116 38.1158C260.79 43.4427 257.585 50.0872 256.5 57C255.416 50.0871 252.21 43.4425 246.885 38.1158C241.558 32.7892 234.913 29.5837 228 28.4998C234.913 27.4159 241.558 24.211 246.885 18.8842C252.211 13.5573 255.416 6.91279 256.5 0C257.584 6.91292 260.79 13.5575 266.116 18.8842C271.442 24.2108 278.087 27.4163 285 28.5002C278.087 29.5841 271.443 32.789 266.116 38.1158Z" fill="#0E0E0E"/>
<path fill-rule="evenodd" clip-rule="evenodd" d="M323.116 38.1158C317.79 43.4427 314.585 50.0872 313.5 57C312.416 50.0871 309.21 43.4425 303.885 38.1158C298.558 32.7892 291.913 29.5837 285 28.4998C291.913 27.4159 298.558 24.211 303.885 18.8842C309.211 13.5573 312.416 6.91279 313.5 0C314.584 6.91292 317.79 13.5575 323.116 18.8842C328.442 24.2108 335.087 27.4163 342 28.5002C335.087 29.5841 328.443 32.789 323.116 38.1158Z" fill="white"/>
<path fill-rule="evenodd" clip-rule="evenodd" d="M380.116 38.1158C374.79 43.4427 371.585 50.0872 370.5 57C369.416 50.0871 366.21 43.4425 360.885 38.1158C355.558 32.7892 348.913 29.5837 342 28.4998C348.913 27.4159 355.558 24.211 360.885 18.8842C366.211 13.5573 369.416 6.91279 370.5 0C371.584 6.91292 374.79 13.5575 380.116 18.8842C385.442 24.2108 392.087 27.4163 399 28.5002C392.087 29.5841 385.443 32.789 380.116 38.1158Z" fill="white"/>
<path fill-rule="evenodd" clip-rule="evenodd" d="M437.116 38.1158C431.79 43.4427 428.585 50.0872 427.5 57C426.416 50.0871 423.21 43.4425 417.885 38.1158C412.558 32.7892 405.913 29.5837 399 28.4998C405.913 27.4159 412.558 24.211 417.885 18.8842C423.211 13.5573 426.416 6.91279 427.5 0C428.584 6.91292 431.79 13.5575 437.116 18.8842C442.442 24.2108 449.087 27.4163 456 28.5002C449.087 29.5841 442.443 32.789 437.116 38.1158Z" fill="white"/>
</svg>
